<!-- Generated by IcoMoon.io -->
<svg version="1.1" xmlns="http://www.w3.org/2000/svg" width="1024" height="1024" viewBox="0 0 1024 1024">
<title></title>
<g id="icomoon-ignore">
</g>
<path d="M542.292 571.741c-3.966 3.998-8.685 7.173-13.885 9.342-5.199 2.164-10.775 3.281-16.407 3.281s-11.208-1.117-16.407-3.281c-5.199-2.169-9.919-5.343-13.885-9.342l-195.415-195.84c-3.967-3.999-8.685-7.173-13.885-9.339s-10.776-3.281-16.408-3.281c-5.633 0-11.21 1.115-16.409 3.281s-9.918 5.34-13.885 9.339c-7.947 7.994-12.407 18.808-12.407 30.080s4.46 22.086 12.407 30.080l195.84 195.84c24 23.971 56.535 37.432 90.453 37.432 33.922 0 66.453-13.461 90.452-37.432l195.845-195.84c7.88-7.947 12.325-18.674 12.372-29.866 0.033-5.615-1.043-11.182-3.17-16.38-2.122-5.198-5.25-9.926-9.202-13.913-3.97-3.999-8.685-7.173-13.889-9.339-5.199-2.166-10.775-3.281-16.407-3.281s-11.208 1.115-16.407 3.281c-5.199 2.166-9.919 5.34-13.885 9.339l-195.416 195.84z"></path>
</svg>
